<?xml version="1.0" encoding="UTF-8"?>
<svg width="16px" height="16px" viewBox="0 0 16 16" version="1.1" xmlns="http://www.w3.org/2000/svg" xmlns:xlink="http://www.w3.org/1999/xlink">
    <title>11综合查询</title>
    <g id="AntDesign-Pro-4.0" stroke="none" stroke-width="1" fill="none" fill-rule="evenodd">
        <g id="财务统计" transform="translate(-35.000000, -527.000000)" fill-rule="nonzero">
            <g id="编组-3备份" transform="translate(35.000000, 525.000000)">
                <g id="11综合查询" transform="translate(0.000000, 2.000000)">
                    <rect id="矩形" fill="#000000" opacity="0" x="0" y="0" width="16" height="16"></rect>
                    <path d="M14.015625,7.78125 C14.015625,4.459375 11.321875,1.765625 8,1.765625 C4.678125,1.765625 1.984375,4.459375 1.984375,7.78125 C1.984375,11.103125 4.678125,13.796875 8,13.796875 C9.3609375,13.796875 10.6171875,13.34375 11.625,12.58125 L13.2765625,14.234375 L13.984375,13.5265625 L12.3703125,11.9140625 C13.390625,10.8359375 14.015625,9.38125 14.015625,7.78125 Z M8,12.796875 C7.321875,12.796875 6.665625,12.6640625 6.0484375,12.403125 C5.4515625,12.15 4.9140625,11.7890625 4.453125,11.328125 C3.9921875,10.8671875 3.6296875,10.33125 3.378125,9.7328125 C3.1171875,9.115625 2.984375,8.459375 2.984375,7.78125 C2.984375,7.103125 3.1171875,6.446875 3.378125,5.8296875 C3.63125,5.2328125 3.9921875,4.6953125 4.453125,4.234375 C4.9140625,3.7734375 5.45,3.4109375 6.0484375,3.159375 C6.665625,2.8984375 7.321875,2.765625 8,2.765625 C8.678125,2.765625 9.334375,2.8984375 9.9515625,3.159375 C10.5484375,3.4125 11.0859375,3.7734375 11.546875,4.234375 C12.0078125,4.6953125 12.3703125,5.23125 12.621875,5.8296875 C12.8828125,6.446875 13.015625,7.103125 13.015625,7.78125 C13.015625,8.459375 12.8828125,9.115625 12.621875,9.7328125 C12.36875,10.3296875 12.0078125,10.8671875 11.546875,11.328125 C11.0859375,11.7890625 10.55,12.1515625 9.9515625,12.403125 C9.334375,12.6640625 8.678125,12.796875 8,12.796875 Z" id="形状" fill="#354268"></path>
                    <path d="M4.984375,5.234375 L7.984375,5.234375 L7.984375,6.234375 L4.984375,6.234375 L4.984375,5.234375 Z M4.984375,7.234375 L9.984375,7.234375 L9.984375,8.234375 L4.984375,8.234375 L4.984375,7.234375 Z M4.984375,9.234375 L9.984375,9.234375 L9.984375,10.234375 L4.984375,10.234375 L4.984375,9.234375 Z" id="形状" fill="#354268"></path>
                </g>
            </g>
        </g>
    </g>
</svg>