<?xml version="1.0" standalone="no"?><!DOCTYPE svg PUBLIC "-//W3C//DTD SVG 1.1//EN" "http://www.w3.org/Graphics/SVG/1.1/DTD/svg11.dtd"><svg class="icon" width="48px" height="48.00px" viewBox="0 0 1024 1024" version="1.1" xmlns="http://www.w3.org/2000/svg"><path d="M601.6 537.6c12.8-12.8 12.8-32 0-44.8L198.4 83.2c-12.8-12.8-32-12.8-44.8 0-19.2 12.8-19.2 32-6.4 44.8l384 384-384 384c-12.8 12.8-12.8 32 0 44.8 12.8 12.8 32 12.8 44.8 0l409.6-403.2zM422.4 128l384 384-384 384c-12.8 12.8-12.8 32 0 44.8 12.8 12.8 32 12.8 44.8 0l409.6-409.6c12.8-12.8 12.8-32 0-44.8L467.2 83.2c-12.8-12.8-32-12.8-44.8 0-12.8 12.8-12.8 32 0 44.8z" fill="#667eff" /></svg>