<?xml version="1.0" standalone="no"?><!DOCTYPE svg PUBLIC "-//W3C//DTD SVG 1.1//EN" "http://www.w3.org/Graphics/SVG/1.1/DTD/svg11.dtd"><svg class="icon" width="48px" height="48.00px" viewBox="0 0 1024 1024" version="1.1" xmlns="http://www.w3.org/2000/svg"><path d="M454.7584 634.197333A171.8272 171.8272 0 0 1 403.968 512c0-27.648 6.724267-55.0912 19.456-79.530667a21.333333 21.333333 0 0 1 37.819733 19.694934A128.170667 128.170667 0 0 0 446.600533 512a130.525867 130.525867 0 0 0 130.389334 130.321067l173.294933 0.068266A130.525867 130.525867 0 0 0 880.64 512a129.399467 129.399467 0 0 0-38.263467-92.023467 129.1264 129.1264 0 0 0-92.023466-38.263466h-122.5728a21.367467 21.367467 0 0 1 0-42.734934h122.538666c46.045867 0 89.429333 18.090667 122.197334 50.858667A171.8272 171.8272 0 0 1 923.374933 512c0 46.011733-18.090667 89.429333-50.858666 122.197333a171.8272 171.8272 0 0 1-122.197334 50.824534l-173.329066-0.068267a171.588267 171.588267 0 0 1-122.197334-50.756267z" fill="#667eff" /><path d="M151.483733 634.197333A171.8272 171.8272 0 0 1 100.625067 512a171.9296 171.9296 0 0 1 50.858666-122.197333 171.8272 171.8272 0 0 1 122.197334-50.824534h173.2608c46.011733 0 89.429333 18.090667 122.197333 50.858667A171.8272 171.8272 0 0 1 619.963733 512a172.714667 172.714667 0 0 1-19.456 79.530667 21.333333 21.333333 0 0 1-37.819733-19.694934 129.399467 129.399467 0 0 0-23.6544-151.790933 129.1264 129.1264 0 0 0-92.023467-38.2976l-173.294933-0.1024a129.399467 129.399467 0 0 0-92.023467 38.2976A129.1264 129.1264 0 0 0 143.36 511.965867a130.525867 130.525867 0 0 0 130.389333 130.321066h122.538667a21.367467 21.367467 0 0 1 0 42.734934H273.749333a171.861333 171.861333 0 0 1-122.299733-50.858667z" fill="#667eff" /></svg>