<?xml version="1.0" standalone="no"?><!DOCTYPE svg PUBLIC "-//W3C//DTD SVG 1.1//EN" "http://www.w3.org/Graphics/SVG/1.1/DTD/svg11.dtd"><svg class="icon" width="48px" height="48.00px" viewBox="0 0 1024 1024" version="1.1" xmlns="http://www.w3.org/2000/svg"><path d="M93.866667 967.765333a37.632 37.632 0 0 1 0-74.666666h836.266666a37.632 37.632 0 0 1 0 74.666666H93.866667zM782.592 90.88l84.224 84.224a59.733333 59.733333 0 0 1 0 84.224L332.8 791.552a59.733333 59.733333 0 0 1-42.410667 17.322667H179.285333a29.866667 29.866667 0 0 1-29.866666-29.866667V664.917333a59.733333 59.733333 0 0 1 17.322666-42.410666l531.626667-531.626667a59.733333 59.733333 0 0 1 84.224 0zM224.085333 670.890667v63.317333h63.317334l516.693333-516.693333-63.317333-63.914667-516.693334 517.290667z" fill="#667eff" /></svg>