<?xml version="1.0" standalone="no"?><!DOCTYPE svg PUBLIC "-//W3C//DTD SVG 1.1//EN" "http://www.w3.org/Graphics/SVG/1.1/DTD/svg11.dtd"><svg t="1644892459156" class="icon" viewBox="0 0 1024 1024" version="1.1" xmlns="http://www.w3.org/2000/svg" p-id="2023" xmlns:xlink="http://www.w3.org/1999/xlink" width="200" height="200"><defs><style type="text/css"></style></defs><path d="M959.872 215.552H64V37.12C64 16.64 81.728 0 103.616 0H920.32c21.888 0 39.616 16.64 39.616 37.12v178.432h-0.128z" fill="#1A7FC0" p-id="2024"></path><path d="M960 1024l-448.064-183.936L64 1024V215.552h896z" fill="#83C6EF" p-id="2025"></path><path d="M512 377.28l64.64 124.16 144.448 19.968-104.512 96.64 24.64 136.448L512 690.112l-129.28 64.384 24.832-136.512-104.64-96.576 144.448-19.968z" fill="#FFCC5A" p-id="2026"></path><path d="M960 215.552H541.888V0h376.896c22.72 0 41.216 19.392 41.216 43.328v172.224z" fill="#2D416C" p-id="2027"></path><path d="M64 215.552h776.512v53.952H64z" fill="#429BCF" p-id="2028"></path><path d="M64 215.552h896v64H64z" fill="#D2EDF7" p-id="2029"></path></svg>