<?xml version="1.0" standalone="no"?><!DOCTYPE svg PUBLIC "-//W3C//DTD SVG 1.1//EN" "http://www.w3.org/Graphics/SVG/1.1/DTD/svg11.dtd"><svg t="1638183748911" class="icon" viewBox="0 0 1024 1024" version="1.1" xmlns="http://www.w3.org/2000/svg" p-id="2406" xmlns:xlink="http://www.w3.org/1999/xlink" width="200" height="200"><defs><style type="text/css"></style></defs><path d="M458.70532227 260.47680664a19.28100586 19.28100586 0 0 1-16.76953125-9.88769531 20.17089844 20.17089844 0 0 1 0-19.77539063c3.46069336-6.13037109 9.84814453-9.88769531 16.76953125-9.88769531h425.58618164a19.57763672 19.57763672 0 0 1 19.36010742 19.77539063 19.57763672 19.57763672 0 0 1-19.36010742 19.77539062H458.70532227z m0 272.99926758a19.57763672 19.57763672 0 0 1-19.36010743-19.77539063c0-10.93579102 8.66162109-19.77539063 19.36010743-19.77539062h425.58618164a19.57763672 19.57763672 0 0 1 19.36010742 19.77539062 19.57763672 19.57763672 0 0 1-19.36010742 19.77539063H458.70532227z m0 279.42626953a19.57763672 19.57763672 0 0 1-19.36010743-19.77539063c0-10.91601563 8.66162109-19.77539063 19.36010743-19.77539062h425.58618164a19.57763672 19.57763672 0 0 1 19.36010742 19.77539062 19.57763672 19.57763672 0 0 1-19.36010742 19.77539063H458.70532227zM196.68139648 273.33081055l115.29052735-111.45410157a19.34033203 19.34033203 0 1 1 26.89453125 27.82397461l-128.95532227 124.6640625a19.34033203 19.34033203 0 0 1-27.13183593-0.21752929L122.62255859 253.93115234a19.34033203 19.34033203 0 1 1 27.34936524-27.34936523L196.68139648 273.31103516z m-46.72924804 228.40576172l46.72924804 46.72924804 115.29052735-111.45410156a19.34033203 19.34033203 0 1 1 26.89453125 27.82397461l-128.95532227 124.6640625a19.34033203 19.34033203 0 0 1-27.13183593-0.2175293L122.62255859 529.0859375a19.34033203 19.34033203 0 0 1 27.34936524-27.34936523z m0 279.42626953l46.72924804 46.74902343 115.29052735-111.45410156a19.34033203 19.34033203 0 0 1 26.89453125 27.80419922L209.9309082 868.94580078a19.34033203 19.34033203 0 0 1-27.13183593-0.23730469L122.62255859 808.53198242a19.34033203 19.34033203 0 0 1 27.34936524-27.36914062z" fill="#515151" p-id="2407"></path></svg>