<?xml version="1.0" standalone="no"?><!DOCTYPE svg PUBLIC "-//W3C//DTD SVG 1.1//EN" "http://www.w3.org/Graphics/SVG/1.1/DTD/svg11.dtd"><svg t="1638183721354" class="icon" viewBox="0 0 1092 1024" version="1.1" xmlns="http://www.w3.org/2000/svg" p-id="2279" xmlns:xlink="http://www.w3.org/1999/xlink" width="213.28125" height="200"><defs><style type="text/css"></style></defs><path d="M313.9584 729.2928a19.729067 19.729067 0 0 1 11.605333 11.605333c1.911467 5.3248 0.955733 10.6496-2.389333 14.062934l-92.842667 92.7744 92.842667 92.842666c5.188267 5.3248 4.232533 14.813867-2.184533 21.162667-6.280533 6.3488-15.701333 7.304533-21.162667 2.048l-92.842667-92.842667-92.706133 92.842667c-5.393067 5.256533-14.813867 4.3008-21.162667-2.048s-7.304533-15.837867-2.048-21.162667l92.7744-92.842666-92.842666-92.842667c-3.413333-3.413333-4.3008-8.738133-2.389334-13.994667a19.729067 19.729067 0 0 1 11.605334-11.605333c5.3248-1.911467 10.6496-1.024 14.062933 2.389333l92.7744 92.7744 92.842667-92.7744c3.413333-3.413333 8.8064-4.3008 14.062933-2.389333z m-19.797333-342.016a19.729067 19.729067 0 0 1 11.605333 11.605333c1.979733 5.3248 1.024 10.717867-2.321067 14.062934l-92.842666 92.842666 92.842666 92.842667c5.188267 5.3248 4.232533 14.7456-2.184533 21.0944-6.280533 6.417067-15.701333 7.304533-21.162667 2.048l-92.842666-92.842667-92.706134 92.842667c-5.393067 5.256533-14.813867 4.369067-21.162666-2.048-6.3488-6.3488-7.304533-15.7696-2.048-21.162667l92.7744-92.842666-92.842667-92.7744C67.857067 409.6 66.9696 404.138667 68.949333 398.9504a19.729067 19.729067 0 0 1 11.605334-11.605333c5.3248-1.979733 10.6496-1.024 14.062933 2.389333l92.7744 92.7744 92.842667-92.842667c3.413333-3.413333 8.8064-4.3008 14.062933-2.389333z m0-374.784a19.729067 19.729067 0 0 1 11.605333 11.605333c1.979733 5.256533 1.024 10.581333-2.321067 13.994667l-92.842666 92.7744 92.842666 92.842667c5.188267 5.393067 4.232533 14.813867-2.184533 21.162666-6.280533 6.3488-15.701333 7.304533-21.162667 2.048l-92.842666-92.842666-92.706134 92.842666c-5.393067 5.256533-14.813867 4.3008-21.162666-2.048s-7.304533-15.7696-2.048-21.162666l92.7744-92.842667L71.2704 38.0928C67.857067 34.679467 66.9696 29.354667 68.949333 24.029867a19.729067 19.729067 0 0 1 11.605334-11.605334c5.3248-1.911467 10.6496-0.955733 14.062933 2.4576l92.7744 92.7744 92.842667-92.842666c3.413333-3.413333 8.8064-4.3008 14.062933-2.389334z m715.434666 88.814933a25.6 25.6 0 0 1 25.3952 25.941334 25.6 25.6 0 0 1-25.326933 25.8048H452.744533a25.258667 25.258667 0 0 1-21.981866-12.970667 26.4192 26.4192 0 0 1 0-25.8048 25.258667 25.258667 0 0 1 21.981866-12.970667h556.919467zM452.8128 510.293333a25.6 25.6 0 0 1-25.326933-25.873066c0-14.336 11.332267-25.873067 25.258666-25.873067h556.987734a25.6 25.6 0 0 1 25.326933 25.941333 25.6 25.6 0 0 1-25.326933 25.8048H452.744533z m-25.326933 339.831467c0-14.336 11.332267-25.941333 25.258666-25.941333h556.987734a25.6 25.6 0 0 1 25.326933 25.941333 25.6 25.6 0 0 1-25.326933 25.873067H452.744533a25.6 25.6 0 0 1-25.326933-25.941334z" fill="#354268" p-id="2280"></path></svg>