<?xml version="1.0" encoding="UTF-8"?>
<svg width="16px" height="16px" viewBox="0 0 16 16" version="1.1" xmlns="http://www.w3.org/2000/svg" xmlns:xlink="http://www.w3.org/1999/xlink">
    <title>14新闻管理</title>
    <g id="AntDesign-Pro-4.0" stroke="none" stroke-width="1" fill="none" fill-rule="evenodd">
        <g id="新增合同" transform="translate(-35.000000, -335.000000)" fill-rule="nonzero">
            <g id="侧面栏" transform="translate(0.000000, -1.000000)">
                <g id="编组-6备份-9">
                    <g id="编组-5">
                        <g id="Group-3">
                            <g id="14新闻管理" transform="translate(35.000000, 336.000000)">
                                <rect id="矩形" fill="#000000" opacity="0" x="0" y="0" width="16" height="16"></rect>
                                <path d="M5,5.7078125 L7,7.70625 L7,8 L8,8 L8,4 L7,4 L7,6.29375 L5,4.2921875 L5,4 L4,4 L4,8 L5,8 L5,5.7078125 Z M9,5 L12,5 L12,6 L9,6 L9,5 Z M9,7 L12,7 L12,8 L9,8 L9,7 Z M4,9 L12,9 L12,10 L4,10 L4,9 Z M4,11 L12,11 L12,12 L4,12 L4,11 Z" id="形状" fill="#7382AE"></path>
                                <path d="M2,2 L2,14 L14,14 L14,2 L2,2 Z M13,13 L3,13 L3,3 L13,3 L13,13 Z" id="形状" fill="#7382AE"></path>
                            </g>
                        </g>
                    </g>
                </g>
            </g>
        </g>
    </g>
</svg>