<?xml version="1.0" standalone="no"?><!DOCTYPE svg PUBLIC "-//W3C//DTD SVG 1.1//EN" "http://www.w3.org/Graphics/SVG/1.1/DTD/svg11.dtd"><svg t="1594457011112" class="icon" viewBox="0 0 1024 1024" version="1.1" xmlns="http://www.w3.org/2000/svg" p-id="10241" xmlns:xlink="http://www.w3.org/1999/xlink" width="200" height="200"><defs><style type="text/css"></style></defs><path d="M945.699787 145.019311a37.507036 37.507036 0 0 1-32.374495 18.599981H110.543109a37.287697 37.287697 0 0 1 0-74.575394h802.782183a37.243829 37.243829 0 0 1 32.374495 55.84381zM586.246387 74.611366H437.665882a37.287697 37.287697 0 1 1 0-74.575394h148.580505a37.287697 37.287697 0 0 1 33.602795 56.370224 36.892886 36.892886 0 0 1-33.602795 18.20517zM407.92346 838.438872a37.770244 37.770244 0 0 1-26.320728-10.879234 36.761282 36.761282 0 0 1-10.879234-26.320727V331.238457a37.375433 37.375433 0 0 1 74.575395 0v469.912718a37.507036 37.507036 0 0 1-37.375433 37.24383z m208.065349 0a37.901847 37.901847 0 0 1-18.731584-5.000938 37.507036 37.507036 0 0 1-18.599981-32.374494V331.106853a37.375433 37.375433 0 0 1 74.575394 0v469.912719a37.02449 37.02449 0 0 1-18.731584 32.242891 35.971661 35.971661 0 0 1-18.599981 5.132542zM151.340236 212.795184a37.419301 37.419301 0 0 1 56.107017 32.242891v635.601697a75.979166 75.979166 0 0 0 81.462651 68.609362h446.048593a76.023034 76.023034 0 0 0 81.594254-68.609362V245.038075a37.375433 37.375433 0 1 1 74.575394 0v635.601697a150.379089 150.379089 0 0 1-156.34512 143.228624H288.822169a150.291353 150.291353 0 0 1-156.213517-143.228624V245.038075a37.156093 37.156093 0 0 1 18.599981-32.242891z m0 0" p-id="10242"></path></svg>