<?xml version="1.0" encoding="UTF-8"?>
<svg width="22px" height="22px" viewBox="0 0 22 22" version="1.1" xmlns="http://www.w3.org/2000/svg" xmlns:xlink="http://www.w3.org/1999/xlink">
    <title>delete</title>
    <g id="AntDesign-Pro-4.0" stroke="none" stroke-width="1" fill="none" fill-rule="evenodd">
        <g id="角色管理" transform="translate(-593.000000, -297.000000)" fill-rule="nonzero">
            <g id="delete" transform="translate(593.000000, 297.000000)">
                <rect id="矩形" fill="#000000" opacity="0" x="0" y="0" width="22" height="22"></rect>
                <path d="M7.734375,3.953125 L7.5625,3.953125 C7.65703125,3.953125 7.734375,3.87578125 7.734375,3.78125 L7.734375,3.953125 L14.265625,3.953125 L14.265625,3.78125 C14.265625,3.87578125 14.3429688,3.953125 14.4375,3.953125 L14.265625,3.953125 L14.265625,5.5 L15.8125,5.5 L15.8125,3.78125 C15.8125,3.02285156 15.1958984,2.40625 14.4375,2.40625 L7.5625,2.40625 C6.80410156,2.40625 6.1875,3.02285156 6.1875,3.78125 L6.1875,5.5 L7.734375,5.5 L7.734375,3.953125 Z M18.5625,5.5 L3.4375,5.5 C3.05722656,5.5 2.75,5.80722656 2.75,6.1875 L2.75,6.875 C2.75,6.96953125 2.82734375,7.046875 2.921875,7.046875 L4.21953125,7.046875 L4.75019531,18.2832031 C4.78457031,19.0158203 5.39042969,19.59375 6.12304688,19.59375 L15.8769531,19.59375 C16.6117188,19.59375 17.2154297,19.0179688 17.2498047,18.2832031 L17.7804688,7.046875 L19.078125,7.046875 C19.1726562,7.046875 19.25,6.96953125 19.25,6.875 L19.25,6.1875 C19.25,5.80722656 18.9427734,5.5 18.5625,5.5 Z M15.7115234,18.046875 L6.28847656,18.046875 L5.76855469,7.046875 L16.2314453,7.046875 L15.7115234,18.046875 Z" id="形状" fill="#C0C0C0"></path>
            </g>
        </g>
    </g>
</svg>