<?xml version="1.0" encoding="UTF-8"?>
<svg width="16px" height="16px" viewBox="0 0 16 16" version="1.1" xmlns="http://www.w3.org/2000/svg" xmlns:xlink="http://www.w3.org/1999/xlink">
    <title>编辑</title>
    <g id="AntDesign-Pro-4.0" stroke="none" stroke-width="1" fill="none" fill-rule="evenodd">
        <g id="合同管理" transform="translate(-584.000000, -323.000000)" fill-rule="nonzero">
            <g id="编辑" transform="translate(584.000000, 323.000000)">
                <rect id="矩形" fill="#000000" opacity="0" x="0" y="0" width="16" height="16"></rect>
                <path d="M2.4,14.104 C2.14816535,14.0720815 1.95937192,13.8578493 1.95937192,13.604 C1.95937192,13.3501507 2.14816535,13.1359185 2.4,13.104 L13.6,13.104 C13.8518346,13.1359185 14.0406281,13.3501507 14.0406281,13.604 C14.0406281,13.8578493 13.8518346,14.0720815 13.6,14.104 L2.4,14.104 Z M11.624,2.36 L12.752,3.488 C13.0621789,3.80002996 13.0621789,4.30397004 12.752,4.616 L5.6,11.744 C5.44902494,11.8937492 5.24464239,11.9772294 5.032,11.9760134 L3.544,11.9760134 C3.3230861,11.9760134 3.14398661,11.7969139 3.14398661,11.576 L3.14398661,10.048 C3.14277059,9.83535761 3.22625079,9.63097506 3.376,9.48 L10.496,2.36 C10.80803,2.04982112 11.31197,2.04982112 11.624,2.36 L11.624,2.36 Z M4.144,10.128 L4.144,10.976 L4.992,10.976 L11.912,4.056 L11.064,3.2 L4.144,10.128 Z" id="形状" fill="#6C8CFF"></path>
            </g>
        </g>
    </g>
</svg>