<?xml version="1.0" standalone="no"?><!DOCTYPE svg PUBLIC "-//W3C//DTD SVG 1.1//EN" "http://www.w3.org/Graphics/SVG/1.1/DTD/svg11.dtd"><svg t="1635229293128" class="icon" viewBox="0 0 1024 1024" version="1.1" xmlns="http://www.w3.org/2000/svg" p-id="5907" xmlns:xlink="http://www.w3.org/1999/xlink" width="200" height="200"><defs><style type="text/css"></style></defs><path d="M512 64C267.2 64 64 262 64 512s203.2 448 448 448c250 0 448-198 448-448S756.8 64 512 64z m0 670.6c-31.3 0-52.1-20.8-52.1-52.1s26-52.1 52.1-52.1c31.3 0 52.1 26 52.1 52.1 0 31.2-26.1 52.1-52.1 52.1z m-57.3-191.4V326.7c0-31.3 26-52.1 52.1-52.1 31.3 0 52.1 26 52.1 52.1v197.5c0 31.3-26 52.1-52.1 52.1-31.3 0-52.1-26-52.1-52.1v19z" p-id="5908"></path></svg>