<?xml version="1.0" standalone="no"?><!DOCTYPE svg PUBLIC "-//W3C//DTD SVG 1.1//EN" "http://www.w3.org/Graphics/SVG/1.1/DTD/svg11.dtd"><svg class="icon" width="200px" height="200.00px" viewBox="0 0 1024 1024" version="1.1" xmlns="http://www.w3.org/2000/svg"><path d="M676.397211 142.093229c65.670675 39.123043 88.026846 124.355239 48.903803 190.027961L548.547381 630.433366c-25.848715 44.014446-82.438571 58.684564-126.45097 32.834826-44.014446-25.848715-58.684564-82.438571-32.834826-126.45097l141.124158-238.931764c6.287193-11.175527 20.956288-14.669094 31.43699-8.381901 11.178597 6.287193 14.672164 20.960381 8.381901 31.43699l-141.120065 238.931764c-13.274328 21.656229-5.587252 50.299593 16.068977 63.572898 21.656229 13.274328 50.299593 5.591345 63.572898-16.068977l176.753633-298.312176c25.848715-44.014446 11.178597-100.601232-32.835849-126.45097-44.0124-25.848715-100.602256-11.17962-126.45097 32.835849L314.508044 573.84658c-39.123043 65.667605-16.766872 150.900825 48.903803 190.023868s150.903895 16.766872 190.027961-48.903803l176.750563-298.312176c6.287193-11.17962 20.960381-14.673188 31.44006-8.385994 11.17655 6.290263 14.670118 20.960381 8.381901 31.44006L593.258699 738.021733c-51.698452 88.026846-165.574013 117.370151-253.600859 64.97278-88.026846-51.698452-117.370151-165.574013-64.97278-253.600859l211.68419-358.3956C524.793374 125.325333 610.026594 103.670128 676.397211 142.093229L676.397211 142.093229 676.397211 142.093229zM676.397211 142.093229" fill="#6C8CFF" /></svg>