<?xml version="1.0" standalone="no"?><!DOCTYPE svg PUBLIC "-//W3C//DTD SVG 1.1//EN" "http://www.w3.org/Graphics/SVG/1.1/DTD/svg11.dtd"><svg t="1635297898764" class="icon" viewBox="0 0 1024 1024" version="1.1" xmlns="http://www.w3.org/2000/svg" p-id="6343" xmlns:xlink="http://www.w3.org/1999/xlink" width="200" height="200"><defs><style type="text/css"></style></defs><path d="M891.733333 136.533333a64 64 0 0 1 64 64v657.066667a64 64 0 0 1-64 64H132.266667a64 64 0 0 1-64-64V200.533333a64 64 0 0 1 64-64h759.466666zM595.157333 566.4a21.333333 21.333333 0 0 0-3.84 3.84l-195.498666 252.970667a21.333333 21.333333 0 0 0 16.896 34.389333h390.954666a21.333333 21.333333 0 0 0 16.874667-34.389333L625.066667 570.24a21.333333 21.333333 0 0 0-29.909334-3.84zM290.133333 341.333333a85.333333 85.333333 0 1 0 0 170.666667 85.333333 85.333333 0 0 0 0-170.666667z" fill="#717378" p-id="6344"></path></svg>