<?xml version="1.0" encoding="UTF-8"?>
<svg width="18px" height="18px" viewBox="0 0 18 18" version="1.1" xmlns="http://www.w3.org/2000/svg" xmlns:xlink="http://www.w3.org/1999/xlink">
    <title>8财务中心</title>
    <g id="AntDesign-Pro-4.0" stroke="none" stroke-width="1" fill="none" fill-rule="evenodd">
        <g id="新增合同" transform="translate(-34.000000, -193.000000)" fill-rule="nonzero">
            <g id="侧面栏" transform="translate(0.000000, -1.000000)">
                <g id="编组-6备份-9">
                    <g id="编组-5">
                        <g id="Group-3">
                            <g id="8财务中心" transform="translate(34.000000, 194.000000)">
                                <rect id="矩形" fill="#000000" opacity="0" x="0" y="0" width="18" height="18"></rect>
                                <path d="M9,3.375 C9.759375,3.375 10.4958984,3.52441406 11.1884766,3.81621094 C11.8582031,4.09921875 12.459375,4.50527344 12.9761719,5.02207031 C13.4929688,5.53886719 13.8990234,6.14003906 14.1820313,6.80976562 C14.4755859,7.50410156 14.625,8.240625 14.625,9 C14.625,9.759375 14.4755859,10.4958984 14.1837891,11.1884766 C13.9007812,11.8582031 13.4947266,12.459375 12.9779297,12.9761719 C12.4611328,13.4929688 11.8599609,13.8990234 11.1902344,14.1820313 C10.4958984,14.4755859 9.759375,14.625 9,14.625 C8.240625,14.625 7.50410156,14.4755859 6.81152344,14.1837891 C6.14179687,13.9007812 5.540625,13.4947266 5.02382812,12.9779297 C4.50703125,12.4611328 4.10097656,11.8599609 3.81796875,11.1902344 C3.52441406,10.4958984 3.375,9.759375 3.375,9 C3.375,8.240625 3.52441406,7.50410156 3.81621094,6.81152344 C4.09921875,6.14179687 4.50527344,5.540625 5.02207031,5.02382812 C5.53886719,4.50703125 6.14003906,4.10097656 6.80976562,3.81796875 C7.50410156,3.52441406 8.240625,3.375 9,3.375 M9,2.25 C5.27167969,2.25 2.25,5.27167969 2.25,9 C2.25,12.7283203 5.27167969,15.75 9,15.75 C12.7283203,15.75 15.75,12.7283203 15.75,9 C15.75,5.27167969 12.7283203,2.25 9,2.25 Z" id="形状" fill="#7382AE"></path>
                                <polygon id="路径" fill="#7382AE" points="10.6699219 6.1875 9.54492188 6.1875 9.54492188 7.3125 8.4375 7.3125 8.4375 6.1875 7.3125 6.1875 7.3125 7.3125 6.75 7.3125 6.75 8.4375 8.4375 8.4375 8.4375 9.5625 6.75 9.5625 6.75 10.6875 8.4375 10.6875 8.4375 11.8125 9.5625 11.8125 9.5625 10.6875 11.25 10.6875 11.25 9.5625 9.5625 9.5625 9.5625 8.4375 11.25 8.4375 11.25 7.3125 10.6699219 7.3125"></polygon>
                            </g>
                        </g>
                    </g>
                </g>
            </g>
        </g>
    </g>
</svg>