<?xml version="1.0" encoding="UTF-8"?>
<svg width="16px" height="16px" viewBox="0 0 16 16" version="1.1" xmlns="http://www.w3.org/2000/svg" xmlns:xlink="http://www.w3.org/1999/xlink">
    <title>14官网管理</title>
    <g id="AntDesign-Pro-4.0" stroke="none" stroke-width="1" fill="none" fill-rule="evenodd">
        <g id="新增合同" transform="translate(-37.000000, -575.000000)" fill-rule="nonzero">
            <g id="侧面栏" transform="translate(0.000000, -1.000000)">
                <g id="编组-6备份-9">
                    <g id="编组-5">
                        <g id="Group-3">
                            <g id="14官网管理" transform="translate(37.000000, 576.000000)">
                                <rect id="矩形" fill="#000000" opacity="0" x="0" y="0" width="16" height="16"></rect>
                                <path d="M2,13 L14,13 L14,14 L2,14 L2,13 Z M11.99375,2 L4.00625,2 C2.8984375,2 2,2.8984375 2,4.00625 L2,8.9953125 C2,10.103125 2.8984375,11.0015625 4.00625,11.0015625 L11.9953125,11.0015625 C13.103125,11.0015625 14.0015625,10.103125 14.0015625,8.9953125 L14.0015625,4.00625 C14,2.8984375 13.1015625,2 11.99375,2 Z M13,8.9953125 C13,9.55 12.5484375,10.0015625 11.99375,10.0015625 L4.00625,10.0015625 C3.4515625,10.0015625 3,9.55 3,8.9953125 L3,4.00625 C3,3.4515625 3.4515625,3 4.00625,3 L11.99375,3 C12.5484375,3 13,3.4515625 13,4.00625 L13,8.9953125 L13,8.9953125 Z" id="形状" fill="#7382AE"></path>
                                <path d="M4,5 C4,5.55228475 4.44771525,6 5,6 C5.55228475,6 6,5.55228475 6,5 C6,4.44771525 5.55228475,4 5,4 C4.44771525,4 4,4.44771525 4,5 Z" id="路径" fill="#7382AE"></path>
                            </g>
                        </g>
                    </g>
                </g>
            </g>
        </g>
    </g>
</svg>