<?xml version="1.0" encoding="UTF-8"?>
<svg width="18px" height="18px" viewBox="0 0 18 18" version="1.1" xmlns="http://www.w3.org/2000/svg" xmlns:xlink="http://www.w3.org/1999/xlink">
    <title>多选备份</title>
    <g id="AntDesign-Pro-4.0" stroke="none" stroke-width="1" fill="none" fill-rule="evenodd">
        <g id="新建结算-1-媒介运营-客户结算" transform="translate(-389.000000, -725.000000)" fill="#E2E2E2" fill-rule="nonzero">
            <g id="table2" transform="translate(369.000000, 488.000000)">
                <g id="多选备份" transform="translate(29.000001, 246.000000) scale(1, -1) translate(-29.000001, -246.000000) translate(20.000000, 237.000000)">
                    <path d="M15.5894065,1.16608958 C15.9191283,1.16608958 16.2327661,1.29677203 16.4679945,1.53401095 C16.7052333,1.77124986 16.8359157,2.08287725 16.8359157,2.41259913 L16.8359157,15.5874009 C16.8359157,15.9171228 16.7052333,16.2307606 16.4679945,16.4659891 C16.2307556,16.703228 15.9191283,16.8339104 15.5894065,16.8339104 L2.41259838,16.8339104 C2.0828766,16.8339104 1.76923881,16.703228 1.53401047,16.4659891 C1.29677163,16.2287501 1.16608922,15.9171228 1.16608922,15.5874009 L1.16608922,2.41259913 C1.16608922,2.08287725 1.29677163,1.76923936 1.53401047,1.53401095 C1.77124931,1.29677203 2.0828766,1.16608958 2.41259838,1.16608958 L15.5894065,1.16608958 M15.5894065,0 L2.41259838,0 C1.08566927,0 0,1.08566961 0,2.41259913 L0,15.5874009 C0,16.9143304 1.08566927,18 2.41259838,18 L15.587396,18 C16.9143252,18 18,16.9143304 18,15.5874009 L18,2.41259913 C18.0020049,1.08566961 16.9163357,0 15.5894065,0 L15.5894065,0 Z" id="形状"></path>
                </g>
            </g>
        </g>
    </g>
</svg>