<?xml version="1.0" encoding="UTF-8"?>
<svg width="18px" height="18px" viewBox="0 0 18 18" version="1.1" xmlns="http://www.w3.org/2000/svg" xmlns:xlink="http://www.w3.org/1999/xlink">
    <title>多选选中备份</title>
    <g id="AntDesign-Pro-4.0" stroke="none" stroke-width="1" fill="none" fill-rule="evenodd">
        <g id="新建结算-1-媒介运营-客户结算" transform="translate(-389.000000, -670.000000)" fill="#6D7EFF" fill-rule="nonzero">
            <g id="table2" transform="translate(369.000000, 488.000000)">
                <g id="多选选中备份" transform="translate(20.000000, 182.000000)">
                    <path d="M16.1026472,1.34522254e-06 L1.89509582,1.34522254e-06 C1.39230206,-0.00059765996 0.909928817,0.198870567 0.554399692,0.554399692 C0.198870567,0.909928817 -0.00059765996,1.39230206 1.34522254e-06,1.89509582 L1.34522254e-06,16.104906 C1.34522254e-06,16.6075159 0.19966372,17.0895403 0.555062621,17.4449392 C0.910461523,17.8003381 1.39248587,18.0000013 1.89509582,18.0000013 L16.104906,18.0000013 C17.151537,18.0000013 18.0000013,17.151537 18.0000013,16.104906 L18.0000013,1.89509582 C17.9987527,0.848099521 17.1496443,1.34522254e-06 16.1026472,1.34522254e-06 Z M15.0274812,6.15058499 L7.99372679,13.1865981 C7.81619848,13.3643931 7.57525833,13.4642997 7.32400676,13.4642997 C7.07275519,13.4642997 6.83181503,13.3643931 6.65428672,13.1865981 L2.97026187,9.50257327 C2.71445404,9.26673956 2.6082679,8.90979648 2.69357245,8.57248606 C2.77887701,8.23517564 3.04198363,7.97162533 3.37914983,7.88575255 C3.71631604,7.79987978 4.07343753,7.90546434 4.30970193,8.16087445 L7.32513613,11.1763087 L13.6857824,4.81340368 C14.0550348,4.44290379 14.6547225,4.44189252 15.0252224,4.81114494 C15.3957223,5.18039736 15.3967336,5.78008509 15.0274812,6.15058499 L15.0274812,6.15058499 Z" id="形状"></path>
                </g>
            </g>
        </g>
    </g>
</svg>