<?xml version="1.0" encoding="UTF-8"?>
<svg width="18px" height="18px" viewBox="0 0 18 18" version="1.1" xmlns="http://www.w3.org/2000/svg" xmlns:xlink="http://www.w3.org/1999/xlink">
    <title>plus-circle</title>
    <g id="AntDesign-Pro-4.0" stroke="none" stroke-width="1" fill="none" fill-rule="evenodd">
        <g id="新增合同" transform="translate(-777.000000, -419.000000)" fill-rule="nonzero">
            <g id="plus-circle" transform="translate(777.000000, 419.000000)">
                <rect id="矩形" fill="#000000" opacity="0" x="0" y="0" width="18" height="18"></rect>
                <path d="M12.234375,8.4375 L9.5625,8.4375 L9.5625,5.765625 C9.5625,5.68828125 9.49921875,5.625 9.421875,5.625 L8.578125,5.625 C8.50078125,5.625 8.4375,5.68828125 8.4375,5.765625 L8.4375,8.4375 L5.765625,8.4375 C5.68828125,8.4375 5.625,8.50078125 5.625,8.578125 L5.625,9.421875 C5.625,9.49921875 5.68828125,9.5625 5.765625,9.5625 L8.4375,9.5625 L8.4375,12.234375 C8.4375,12.3117188 8.50078125,12.375 8.578125,12.375 L9.421875,12.375 C9.49921875,12.375 9.5625,12.3117188 9.5625,12.234375 L9.5625,9.5625 L12.234375,9.5625 C12.3117188,9.5625 12.375,9.49921875 12.375,9.421875 L12.375,8.578125 C12.375,8.50078125 12.3117188,8.4375 12.234375,8.4375 Z" id="路径" fill="#667EFF"></path>
                <path d="M9,1.125 C4.65117188,1.125 1.125,4.65117188 1.125,9 C1.125,13.3488281 4.65117188,16.875 9,16.875 C13.3488281,16.875 16.875,13.3488281 16.875,9 C16.875,4.65117188 13.3488281,1.125 9,1.125 Z M9,15.5390625 C5.38945313,15.5390625 2.4609375,12.6105469 2.4609375,9 C2.4609375,5.38945313 5.38945313,2.4609375 9,2.4609375 C12.6105469,2.4609375 15.5390625,5.38945313 15.5390625,9 C15.5390625,12.6105469 12.6105469,15.5390625 9,15.5390625 Z" id="形状" fill="#667EFF"></path>
            </g>
        </g>
    </g>
</svg>