<?xml version="1.0" encoding="UTF-8"?>
<svg width="17px" height="17px" viewBox="0 0 17 17" version="1.1" xmlns="http://www.w3.org/2000/svg" xmlns:xlink="http://www.w3.org/1999/xlink">
    <title>2出运表导入</title>
    <g id="AntDesign-Pro-4.0" stroke="none" stroke-width="1" fill="none" fill-rule="evenodd">
        <g id="新增合同" transform="translate(-36.000000, -623.000000)" fill-rule="nonzero">
            <g id="侧面栏" transform="translate(0.000000, -1.000000)">
                <g id="编组-6备份-9">
                    <g id="编组-5">
                        <g id="Group-3">
                            <g id="2出运表导入" transform="translate(36.000000, 624.000000)">
                                <rect id="矩形" fill="#000000" opacity="0" x="0" y="0" width="17" height="17"></rect>
                                <path d="M5.3125,6.375 L9.5625,6.375 L9.5625,7.4375 L5.3125,7.4375 L5.3125,6.375 Z M5.3125,8.5 L7.4375,8.5 L7.4375,9.5625 L5.3125,9.5625 L5.3125,8.5 Z M5.3125,10.625 L6.375,10.625 L6.375,11.6875 L5.3125,11.6875 L5.3125,10.625 Z" id="形状" fill="#7382AE"></path>
                                <path d="M11.6875,3.1875 L11.6875,2.125 L5.3125,2.125 L5.3125,3.1875 L3.1875,3.1875 L3.1875,14.875 L9.5625,14.875 L9.5625,13.8125 L4.25,13.8125 L4.25,4.25 L5.3125,4.25 L5.3125,5.3125 L11.6875,5.3125 L11.6875,4.25 L12.75,4.25 L12.75,9.5625 L13.8125,9.5625 L13.8125,3.1875 L11.6875,3.1875 Z M10.625,4.25 L6.375,4.25 L6.375,3.1875 L10.625,3.1875 L10.625,4.25 Z" id="形状" fill="#7382AE"></path>
                                <polygon id="路径" fill="#7382AE" points="9.5625 9.5625 8.5 9.5625 8.5 10.625 7.4375 10.625 7.4375 11.6875 8.5 11.6875 8.5 12.75 9.5625 12.75 9.5625 11.6875 12.75 11.6875 12.75 13.8125 10.625 13.8125 10.625 14.875 13.8125 14.875 13.8125 10.625 9.5625 10.625"></polygon>
                            </g>
                        </g>
                    </g>
                </g>
            </g>
        </g>
    </g>
</svg>