<?xml version="1.0" standalone="no"?><!DOCTYPE svg PUBLIC "-//W3C//DTD SVG 1.1//EN" "http://www.w3.org/Graphics/SVG/1.1/DTD/svg11.dtd"><svg t="1642149420401" class="icon" viewBox="0 0 1024 1024" version="1.1" xmlns="http://www.w3.org/2000/svg" p-id="19924" xmlns:xlink="http://www.w3.org/1999/xlink" width="200" height="200"><defs><style type="text/css"></style></defs><path d="M512 0C229.216 0 0 229.216 0 512s229.216 512 512 512 512-229.216 512-512S794.784 0 512 0zM709.184 663.936c16.064 16.064 18.976 39.232 6.464 51.712s-35.648 9.6-51.712-6.464L512 557.248l-151.936 151.936c-16.064 16.064-39.232 18.976-51.712 6.464s-9.6-35.648 6.464-51.712L466.752 512l-151.936-151.936c-16.064-16.064-18.976-39.232-6.464-51.712 12.512-12.512 35.648-9.6 51.712 6.464L512 466.752l151.936-151.936c16.064-16.064 39.232-18.976 51.712-6.464 12.512 12.512 9.6 35.648-6.464 51.712L557.248 512 709.184 663.936z" p-id="19925"></path></svg>
