<?xml version="1.0" encoding="UTF-8"?>
<svg width="16px" height="16px" viewBox="0 0 16 16" version="1.1" xmlns="http://www.w3.org/2000/svg" xmlns:xlink="http://www.w3.org/1999/xlink">
    <title>空心问号</title>
    <g id="AntDesign-Pro-4.0" stroke="none" stroke-width="1" fill="none" fill-rule="evenodd">
        <g id="合同管理" transform="translate(-833.000000, -271.000000)" fill="#000000" fill-rule="nonzero">
            <g id="空心问号" transform="translate(833.000000, 271.000000)">
                <rect id="矩形" opacity="0" x="0" y="0" width="16" height="16"></rect>
                <path d="M8,15.5 C3.858,15.5 0.5,12.142 0.5,8 C0.5,3.858 3.858,0.5 8,0.5 C12.142,0.5 15.5,3.858 15.5,8 C15.5,12.142 12.142,15.5 8,15.5 Z M8,14.5 C11.59,14.5 14.5,11.59 14.5,8 C14.5,4.41 11.59,1.5 8,1.5 C4.41,1.5 1.5,4.41 1.5,8 C1.5,11.59 4.41,14.5 8,14.5 Z M8.625,9.4015 L8.625,9.752 L7.375,9.752 L7.375,9.4015 C7.375,8.6 7.753,7.842 8.294,7.2655 C8.7075,6.8245 8.696,6.837 8.814,6.697 C9.126,6.3255 9.25,6.06 9.25,5.75 C9.25,5.05964406 8.69035594,4.5 8,4.5 C7.30964406,4.5 6.75,5.05964406 6.75,5.75 L5.5,5.75 C5.5,4.36928813 6.61928813,3.25 8,3.25 C9.38071187,3.25 10.5,4.36928813 10.5,5.75 C10.5,6.401 10.255,6.925 9.771,7.501 C9.6895,7.598 9.601,7.6975 9.492,7.815 C9.45,7.86 9.407,7.907 9.349,7.968 L9.206,8.1205 C8.863,8.4855 8.625,8.963 8.625,9.4015 Z M8.529,11.2185 C8.6765,11.364 8.75,11.5415 8.75,11.75 C8.75,11.9625 8.6765,12.1405 8.529,12.2845 C8.3891917,12.425106 8.19826264,12.5028852 8,12.5 C7.795,12.5 7.618,12.428 7.471,12.2845 C7.32549976,12.1453029 7.24528763,11.9513056 7.25,11.75 C7.25,11.5415 7.3235,11.364 7.471,11.2185 C7.60997288,11.0763 7.8011857,10.9973208 8,11 C8.205,11 8.382,11.073 8.529,11.2185 L8.529,11.2185 Z" id="形状"></path>
            </g>
        </g>
    </g>
</svg>