<?xml version="1.0" encoding="UTF-8"?>
<svg width="16px" height="16px" viewBox="0 -3 12 16" version="1.1" xmlns="http://www.w3.org/2000/svg"
    xmlns:xlink="http://www.w3.org/1999/xlink">
    <title>SaaS</title>
    <g id="控件" stroke="none" stroke-width="1" fill="none" fill-rule="evenodd">
        <g id="Navigation/3" transform="translate(-29.000000, -454.000000)" fill="#354268" fill-rule="nonzero">
            <g id="编组-30" transform="translate(0.000000, 441.000000)">
                <g id="SaaS" transform="translate(29.000000, 13.000000)">
                    <path
                        d="M7.29342362,3.22586973 L7.29342362,4.64584598 L6.07934514,5.35583411 L4.86526667,4.64584598 L4.86526667,3.22586973 L6.07934514,2.5158816 L7.29342362,3.22586973 Z M6.09230769,1.56923077 C6.0553708,1.56923077 6.01829504,1.57935196 5.98510738,1.59959434 L4.27809521,2.6407569 C4.2117446,2.68118773 4.17089489,2.7559592 4.17089489,2.83687331 L4.17089489,4.91890505 C4.17089489,4.9997279 4.21171989,5.0745367 4.27809521,5.11502147 L5.98510738,6.15618402 C6.01829504,6.1764264 6.05523194,6.18654759 6.09230769,6.18654759 C6.12924459,6.18654759 6.16632034,6.1764264 6.199508,6.15618402 L7.90652018,5.11502147 C7.97287079,5.07459063 8.0137205,4.99981916 8.0137205,4.91890505 L8.0137205,2.83672663 C8.0137205,2.75590378 7.9728955,2.68109498 7.90652018,2.64061021 L6.19936914,1.59944766 C6.1667979,1.57965785 6.12988242,1.56923077 6.09230769,1.56923077 Z M5.15329796,7.19316829 L5.15329796,8.61314454 L3.93921949,9.32313267 L2.72514101,8.61314454 L2.72514101,7.19316829 L3.93921949,6.48318016 L5.15329796,7.19316829 Z M3.95218203,5.53652933 C3.91524514,5.53652933 3.87816939,5.54665052 3.84498173,5.5668929 L2.13796955,6.60805546 C2.07161894,6.64848629 2.03076923,6.72325776 2.03076923,6.80417187 L2.03076923,8.88620361 C2.03076923,8.96702646 2.07159423,9.04183526 2.13796955,9.08232003 L3.84498173,10.1234826 C3.87816939,10.143725 3.91510628,10.1538462 3.95218203,10.1538462 C3.98911893,10.1538462 4.02619468,10.143725 4.05938234,10.1234826 L5.76639452,9.08232003 C5.83274513,9.04188919 5.87359484,8.96711772 5.87359484,8.88620361 L5.87359484,6.80402519 C5.87359484,6.72320234 5.83276984,6.64839354 5.76639452,6.60790877 L4.05924348,5.56674622 C4.02667225,5.54695641 3.98975676,5.53652933 3.95218203,5.53652933 Z M9.43354928,7.19316829 L9.43354928,8.61314454 L8.2194708,9.32313267 L7.00539233,8.61314454 L7.00539233,7.19316829 L8.2194708,6.48318016 L9.43354928,7.19316829 Z M8.23243335,5.53652933 C8.19549646,5.53652933 8.1584207,5.54665052 8.12523304,5.5668929 L6.41822086,6.60805546 C6.35187026,6.64848629 6.31102055,6.72325776 6.31102055,6.80417187 L6.31102055,8.88620361 C6.31102055,8.96702646 6.35184554,9.04183526 6.41822086,9.08232003 L8.12523304,10.1234826 C8.1584207,10.143725 8.1953576,10.1538462 8.23243335,10.1538462 C8.26937024,10.1538462 8.306446,10.143725 8.33963366,10.1234826 L10.0466458,9.08232003 C10.1129964,9.04188919 10.1538462,8.96711772 10.1538462,8.88620361 L10.1538462,6.80402519 C10.1538462,6.72320234 10.1130212,6.64839354 10.0466458,6.60790877 L8.3394948,5.56674622 C8.30692356,5.54695641 8.27000807,5.53652933 8.23243335,5.53652933 Z"
                        id="形状"></path>
                    <path
                        d="M12,6 C12,2.68228188 9.30885906,0 6,0 C2.68228188,0 0,2.68241611 0,6 C0,9.31758389 2.69114094,12 6,12 C7.35879195,12 8.60295302,11.532349 9.61758389,10.773557 C9.66174497,10.729396 9.67731516,10.6716045 9.68818792,10.5971812 C9.70927515,10.4162169 9.62338622,10.2669563 9.39651402,10.2445644 C9.28377369,10.2502717 9.27137697,10.2564676 9.18164467,10.3070203 C8.28164467,10.9687653 7.2,11.3324801 6,11.3324801 C3,11.3324801 0.738461538,9.03516779 0.738461538,6.03516779 C0.738461538,3.03516779 3,0.759718659 6,0.759718659 C9,0.759718659 11.3295302,3.03516779 11.3295302,6.03516779 C11.3295302,6.95275168 11.1483898,7.73351575 10.7424838,8.49230769 C10.7166045,8.5858903 10.703211,8.651572 10.7023031,8.68935281 C10.762895,8.91367177 10.8864649,8.96272433 11.0897327,8.9773257 C11.2043636,8.9773257 11.2942282,8.85865772 11.3295302,8.75275168 C11.7441611,7.92348993 12,6.98818792 12,6 Z"
                        id="路径"></path>
                </g>
            </g>
        </g>
    </g>
</svg>