<?xml version="1.0" standalone="no"?><!DOCTYPE svg PUBLIC "-//W3C//DTD SVG 1.1//EN" "http://www.w3.org/Graphics/SVG/1.1/DTD/svg11.dtd"><svg t="1594954719928" class="icon" viewBox="0 0 1024 1024" version="1.1" xmlns="http://www.w3.org/2000/svg" p-id="2056" xmlns:xlink="http://www.w3.org/1999/xlink" width="200" height="200"><defs><style type="text/css"></style></defs><path d="M661.76209 499.081825a136.519681 136.519681 0 1 0-273.039362 0 136.519681 136.519681 0 0 0 273.039362 0z m68.259841 0a204.779522 204.779522 0 1 1-409.559044 0 204.779522 204.779522 0 0 1 409.559044 0z" p-id="2057"></path><path d="M707.359664 831.985068a80.956171 80.956171 0 0 0-41.501983 76.109723c2.559744 42.184582-25.187881 80.410092-67.099423 86.860647-24.471153 3.754291-49.010566 5.733827-73.549979 5.733826-36.723794 0-73.03803-4.09559-108.703796-12.150251-40.785255-9.146819-66.041396-48.259707-61.331467-89.659301a80.990301 80.990301 0 0 0-122.116855-78.840116c-35.904676 21.22881-81.911809 14.471086-107.06556-18.942106a497.921408 497.921408 0 0 1-71.160884-131.639103c-13.925007-38.70333 4.539279-80.478352 40.990034-99.318068a80.990301 80.990301 0 0 0 0.853248-143.857614c-36.314235-19.215145-54.437223-61.126687-40.136786-99.659367 20.716862-55.973069 51.194881-107.509249 90.0006-152.492484 26.757858-31.058228 72.048262-35.495117 106.348832-13.17415a81.024431 81.024431 0 0 0 125.393327-70.512415c-1.194547-40.443956 25.69983-76.621671 65.734227-83.413525A485.259207 485.259207 0 0 1 525.208279 0.10239c33.891011 0 67.508982 3.412992 100.615005 10.170716 40.921774 8.39596 66.655734 47.06516 62.833184 88.567143a80.887911 80.887911 0 0 0 123.345532 76.553412c35.426857-21.877279 81.50225-15.699763 107.16795 17.201479a499.662034 499.662034 0 0 1 73.618238 131.058895c15.017165 39.727227-4.675799 82.833317-42.83305 101.331733a80.956171 80.956171 0 0 0 0.853248 146.485618c38.327901 18.054728 58.362164 61.024298 43.754558 100.888045a498.877046 498.877046 0 0 1-90.683199 154.30137c-27.815885 32.218645-75.119955 35.426857-109.557044 10.648535a80.990301 80.990301 0 0 0-86.963037-5.324268z m126.895044-50.068593c6.825984 4.914709 14.266307 4.40276 17.918208 0.17065a430.617205 430.617205 0 0 0 78.294037-133.209079c1.945405-5.324268-1.228677-12.116122-8.737259-15.631504a149.250142 149.250142 0 0 1-1.535847-269.694631c7.610972-3.686031 10.716795-10.546145 8.73726-15.836283a431.333933 431.333933 0 0 0-63.515782-113.072426c-3.447122-4.43689-10.682665-5.392527-17.576909-1.160417a149.147752 149.147752 0 0 1-227.13462-140.922441c0.750858-8.225311-3.310602-14.334567-8.56661-15.392594A434.712795 434.712795 0 0 0 525.208279 68.36223c-23.208346 0-46.484952 2.013665-69.795687 5.972737-5.017098 0.819118-9.112689 6.382295-8.873779 14.129787a149.250142 149.250142 0 0 1-230.888911 129.693697c-6.655334-4.3345-13.822618-3.617772-17.40626 0.546079A430.617205 430.617205 0 0 0 120.529814 350.275372c-1.911276 5.187748 0.955638 11.877212 8.054661 15.631504a149.284272 149.284272 0 0 1-1.467587 264.882312c-7.030764 3.651901-9.965937 10.238976-8.054661 15.563243a429.763957 429.763957 0 0 0 61.433857 113.652635c3.344732 4.43689 10.614405 5.460787 17.747558 1.262807a149.250142 149.250142 0 0 1 224.779656 145.222811c-0.921508 8.054661 3.037563 14.198047 8.46422 15.426724 30.785188 6.928374 62.082325 10.477886 93.720761 10.477886 21.024031 0 42.048062-1.672366 63.140353-4.948839 5.494917-0.819118 9.897677-6.825984 9.385728-15.187814a149.181882 149.181882 0 0 1 236.520348-130.376296z" p-id="2058"></path></svg>