<?xml version="1.0" encoding="UTF-8"?>
<svg width="16px" height="16px" viewBox="0 0 16 16" version="1.1" xmlns="http://www.w3.org/2000/svg" xmlns:xlink="http://www.w3.org/1999/xlink">
    <title>7调度中心</title>
    <g id="AntDesign-Pro-4.0" stroke="none" stroke-width="1" fill="none" fill-rule="evenodd">
        <g id="新增合同" transform="translate(-37.000000, -724.000000)" fill-rule="nonzero">
            <g id="侧面栏" transform="translate(0.000000, -1.000000)">
                <g id="编组-6备份-9">
                    <g id="编组-5">
                        <g id="Group-3">
                            <g id="7调度中心" transform="translate(37.000000, 725.000000)">
                                <rect id="矩形" fill="#000000" opacity="0" x="0" y="0" width="16" height="16"></rect>
                                <path d="M11,4 L11,3 L8,3 L8,4 L2,4 L2,5 L8,5 L8,6 L11,6 L11,5 L14,5 L14,4 L11,4 Z M10,5 L9,5 L9,4 L10,4 L10,5 Z M11,12 L11,11 L8,11 L8,12 L2,12 L2,13 L8,13 L8,14 L11,14 L11,13 L14,13 L14,12 L11,12 Z M10,13 L9,13 L9,12 L10,12 L10,13 Z M2,8 L2,9 L5,9 L5,10 L8,10 L8,9 L14,9 L14,8 L8,8 L8,7 L5,7 L5,8 L2,8 Z M6,8 L7,8 L7,9 L6,9 L6,8 Z" id="形状" fill="#7382AE"></path>
                            </g>
                        </g>
                    </g>
                </g>
            </g>
        </g>
    </g>
</svg>