<?xml version="1.0" standalone="no"?><!DOCTYPE svg PUBLIC "-//W3C//DTD SVG 1.1//EN" "http://www.w3.org/Graphics/SVG/1.1/DTD/svg11.dtd"><svg class="icon" width="200px" height="200.00px" viewBox="0 0 1024 1024" version="1.1" xmlns="http://www.w3.org/2000/svg"><path d="M568.6 512l346.6-346.6c15.6-15.6 15.6-40.9 0-56.6-15.6-15.6-40.9-15.6-56.6 0L512 455.4 165.4 108.9c-15.6-15.6-40.9-15.6-56.6 0-15.6 15.6-15.6 40.9 0 56.6L455.4 512 108.9 858.6c-15.6 15.6-15.6 40.9 0 56.6 7.8 7.8 18 11.7 28.3 11.7s20.5-3.9 28.3-11.7L512 568.6l346.6 346.6c7.8 7.8 18 11.7 28.3 11.7s20.5-3.9 28.3-11.7c15.6-15.6 15.6-40.9 0-56.6L568.6 512z" fill="#6C8CFF" /></svg>