<?xml version="1.0" encoding="UTF-8"?>
<svg width="16px" height="16px" viewBox="0 0 16 16" version="1.1" xmlns="http://www.w3.org/2000/svg" xmlns:xlink="http://www.w3.org/1999/xlink">
    <title>14用户绑定</title>
    <g id="AntDesign-Pro-4.0" stroke="none" stroke-width="1" fill="none" fill-rule="evenodd">
        <g id="新增合同" transform="translate(-37.000000, -674.000000)" fill-rule="nonzero">
            <g id="侧面栏" transform="translate(0.000000, -1.000000)">
                <g id="编组-6备份-9">
                    <g id="编组-5">
                        <g id="Group-3">
                            <g id="14用户绑定" transform="translate(37.000000, 675.000000)">
                                <rect id="矩形" fill="#000000" opacity="0" x="0" y="0" width="16" height="16"></rect>
                                <path d="M10.3984375,11.0546875 C10.3328125,11.0359375 10.265625,11.0234375 10.1953125,11.0140625 C10.13125,11.00625 10.0671875,11.0015625 10.0015625,11.0015625 L8.79375,11.0015625 L7.79375,12.0015625 L7.7921875,12.0015625 L6.7921875,13.0015625 L6,13.0015625 C5.725,13.0015625 5.5,12.7765625 5.5,12.5015625 C5.5,12.2265625 5.725,12.0015625 6,12.0015625 L7.5484375,12.0015625 L8.5484375,11.0015625 L6,11.0015625 C5.171875,11.0015625 4.5,11.6734375 4.5,12.5015625 C4.5,13.1921875 4.9671875,13.7734375 5.6015625,13.9484375 C5.6671875,13.9671875 5.734375,13.9796875 5.8046875,13.9890625 C5.86875,13.996875 5.9328125,14.0015625 5.9984375,14.0015625 L7.20625,14.0015625 L8.20625,13.0015625 L8.2078125,13.0015625 L9.2078125,12.0015625 L10,12.0015625 C10.275,12.0015625 10.5,12.2265625 10.5,12.5015625 C10.5,12.7765625 10.275,13.0015625 10,13.0015625 L8.4515625,13.0015625 L7.4515625,14.0015625 L10,14.0015625 C10.828125,14.0015625 11.5,13.3296875 11.5,12.5015625 C11.5,11.8109375 11.0328125,11.2296875 10.3984375,11.0546875 Z" id="路径" fill="#7382AE"></path>
                                <path d="M10.1265625,8.8875 C11.2515625,8.1796875 12,6.928125 12,5.5 C12,3.290625 10.209375,1.5 8,1.5 C5.790625,1.5 4,3.290625 4,5.5 C4,6.928125 4.7484375,8.1796875 5.8734375,8.8875 C3.7578125,9.6890625 2.2140625,11.653125 2.0203125,14 L3.0234375,14 C3.0734375,13.5015625 3.196875,13.0171875 3.3921875,12.5546875 C3.64375,11.959375 4.0046875,11.425 4.4640625,10.965625 C4.9234375,10.50625 5.4578125,10.1453125 6.053125,9.89375 C6.6703125,9.6328125 7.325,9.5 8,9.5 C8.675,9.5 9.3296875,9.6328125 9.9453125,9.8921875 C10.540625,10.14375 11.075,10.5046875 11.534375,10.9640625 C11.99375,11.4234375 12.3546875,11.9578125 12.60625,12.553125 C12.8015625,13.015625 12.925,13.5 12.975,13.9984375 L13.978125,13.9984375 C13.7859375,11.653125 12.2421875,9.690625 10.1265625,8.8875 Z M5.878125,7.621875 C5.3125,7.0546875 5,6.3015625 5,5.5 C5,4.6984375 5.3125,3.9453125 5.878125,3.378125 C6.4453125,2.8125 7.1984375,2.5 8,2.5 C8.8015625,2.5 9.5546875,2.8125 10.121875,3.378125 C10.6875,3.9453125 11,4.6984375 11,5.5 C11,6.3015625 10.6875,7.0546875 10.121875,7.621875 C9.5546875,8.1875 8.8015625,8.5 8,8.5 C7.1984375,8.5 6.4453125,8.1875 5.878125,7.621875 Z" id="形状" fill="#7382AE"></path>
                            </g>
                        </g>
                    </g>
                </g>
            </g>
        </g>
    </g>
</svg>