<?xml version="1.0" encoding="UTF-8"?>
<svg width="16px" height="16px" viewBox="0 0 16 16" version="1.1" xmlns="http://www.w3.org/2000/svg" xmlns:xlink="http://www.w3.org/1999/xlink">
    <title>4关务管理</title>
    <g id="AntDesign-Pro-4.0" stroke="none" stroke-width="1" fill="none" fill-rule="evenodd">
        <g id="新增合同" transform="translate(-37.000000, -774.000000)" fill-rule="nonzero">
            <g id="侧面栏" transform="translate(0.000000, -1.000000)">
                <g id="编组-6备份-9">
                    <g id="编组-5">
                        <g id="Group-3">
                            <g id="编组-32" transform="translate(0.000000, 513.000000)">
                                <g id="4关务管理" transform="translate(37.000000, 262.000000)">
                                    <rect id="矩形" fill="#000000" opacity="0" x="0" y="0" width="16" height="16"></rect>
                                    <path d="M9,3 L9,5 L7,5 L7,3 L9,3 M10,2 L6,2 L6,6 L10,6 L10,2 Z M5,8 L5,10 L3,10 L3,8 L5,8 M6,7 L2,7 L2,11 L6,11 L6,7 Z M13,8 L13,10 L11,10 L11,8 L13,8 M14,7 L10,7 L10,11 L14,11 L14,7 Z" id="形状" fill="#7382AE"></path>
                                    <polygon id="路径" fill="#7382AE" points="8.5 5.984375 7.5 5.984375 7.5 13.984375 8.5 13.984375"></polygon>
                                    <path d="M12,12 L4,12 L4,13 L12,13 L12,12 Z M9.4734375,8.5 L6.5265625,8.5 L6.5265625,9.5 L9.4734375,9.5 L9.4734375,8.5 Z" id="形状" fill="#7382AE"></path>
                                    <path d="M12.5,10.09375 L11.5,10.09375 L11.5,13 L12.5,13 L12.5,10.09375 Z M4.5,10.09375 L3.5,10.09375 L3.5,13 L4.5,13 L4.5,10.09375 Z" id="形状" fill="#7382AE"></path>
                                </g>
                            </g>
                        </g>
                    </g>
                </g>
            </g>
        </g>
    </g>
</svg>