<?xml version="1.0" standalone="no"?><!DOCTYPE svg PUBLIC "-//W3C//DTD SVG 1.1//EN" "http://www.w3.org/Graphics/SVG/1.1/DTD/svg11.dtd"><svg class="icon" width="200px" height="200.00px" viewBox="0 0 1024 1024" version="1.1" xmlns="http://www.w3.org/2000/svg"><path d="M944.6 328.2c-24.3-57-58.9-108.3-103-152.4S746.2 97 689.2 72.8C630 47.7 567.5 35 503 35S375.9 47.7 316.8 72.8c-57 24.3-108.3 58.9-152.4 103-44.1 44.1-78.8 95.4-103 152.4C36.3 387.3 23.6 450 23.6 514.4s12.7 127.1 37.8 186.2c24.3 57 58.9 108.3 103 152.4 44.1 44.1 95.4 78.8 152.4 103 59.1 25.1 121.8 37.8 186.2 37.8S630 981 689.2 956c57-24.3 108.3-58.9 152.4-103s78.8-95.4 103-152.4c25.1-59.1 37.8-121.8 37.8-186.2s-12.7-127.1-37.8-186.2z m-40.5 355.2c-22 51.8-53.5 98.4-93.6 138.5s-86.7 71.6-138.5 93.6c-53.6 22.7-110.5 34.3-169 34.3s-115.4-11.5-169-34.3c-51.8-22-98.4-53.5-138.5-93.6-40.1-40.1-71.6-86.7-93.6-138.5-22.7-53.6-34.3-110.5-34.3-169s11.5-115.4 34.3-169c22-51.8 53.5-98.4 93.6-138.5 40.1-40.1 86.7-71.6 138.5-93.6C387.6 90.6 444.5 79 503 79s115.3 11.5 169 34.3c51.8 22 98.4 53.5 138.5 93.6 40.1 40.1 71.6 86.7 93.6 138.5 22.7 53.6 34.3 110.5 34.3 169s-11.5 115.4-34.3 169z"  /><path d="M503 688.5c-24 0-43.6 19.6-43.6 43.6s19.6 43.6 43.6 43.6c23.9 0 43.5-19.6 43.6-43.6 0-24-19.6-43.6-43.6-43.6zM481.3 601.5c0 12 9.8 21.8 21.8 21.8s21.8-9.8 21.8-21.8l19.1-305c1.3-23.6-17.4-43.5-41-43.5s-42.3 19.9-40.8 43.5l19.1 305z"  /></svg>